<svg xmlns="http://www.w3.org/2000/svg" viewBox="0 0 300 80" width="300" height="80">
  <!-- 背景の波形 -->
  <path d="M0,40 Q25,20 50,40 T100,40 T150,40 T200,40 T250,40 T300,40" fill="#FF6B6B" opacity="0.2"/>
  <path d="M0,50 Q35,30 70,50 T140,50 T210,50 T280,50 T350,50" fill="#4ECDC4" opacity="0.3"/>
  
  <!-- メインロゴテキスト -->
  <text x="15" y="45" font-family="'M PLUS Rounded 1c', sans-serif" font-size="28" font-weight="700" fill="#2A363B">ゆるっと</text>
  <text x="150" y="45" font-family="'M PLUS Rounded 1c', sans-serif" font-size="24" font-weight="700" fill="#FF6B6B">ダンス</text>
  <text x="235" y="45" font-family="'M PLUS Rounded 1c', sans-serif" font-size="20" font-weight="700" fill="#4ECDC4">フィットネス</text>
  
  <!-- アイコン要素 -->
  <g transform="translate(125, 30) scale(0.04)">
    <path d="M511.988 288.9c-0.478 17.43-15.217 31.1-32.653 31.1H424v16c0 21.864-4.882 42.584-13.6 61.145l60.228 60.228c12.496 12.497 12.496 32.758 0 45.255-12.498 12.497-32.759 12.496-45.256 0l-54.736-54.736C345.886 467.965 314.351 480 280 480V236c0-6.627-5.373-12-12-12h-24c-6.627 0-12 5.373-12 12v244c-34.351 0-65.886-12.035-90.636-32.108l-54.736 54.736c-12.498 12.497-32.759 12.496-45.256 0-12.496-12.497-12.496-32.758 0-45.255l60.228-60.228C92.882 378.584 88 357.864 88 336v-16H32.666C15.23 320 .491 306.33.013 288.9-.484 270.816 14.028 256 32 256h56v-58.745l-46.628-46.628c-12.496-12.497-12.496-32.758 0-45.255 12.498-12.497 32.758-12.497 45.256 0L141.255 160h229.489l54.627-54.627c12.498-12.497 32.758-12.497 45.256 0 12.496 12.497 12.496 32.758 0 45.255L424 197.255V256h56c17.972 0 32.484 14.816 31.988 32.9zM257 0c-61.856 0-112 50.144-112 112h224C369 50.144 318.856 0 257 0z" fill="#FFD166"/>
  </g>
  
  <!-- 装飾的な要素 -->
  <circle cx="10" cy="10" r="5" fill="#FF6B6B">
    <animate attributeName="opacity" from="0.5" to="1" dur="2s" repeatCount="indefinite" />
  </circle>
  <circle cx="290" cy="70" r="6" fill="#4ECDC4">
    <animate attributeName="opacity" from="0.5" to="1" dur="2.5s" repeatCount="indefinite" />
  </circle>
  <circle cx="280" cy="15" r="4" fill="#FFD166">
    <animate attributeName="opacity" from="0.5" to="1" dur="1.8s" repeatCount="indefinite" />
  </circle>
</svg>